<svg width="14" height="15" viewBox="0 0 14 15" fill="none" xmlns="http://www.w3.org/2000/svg">
<path d="M7.00002 10.38L4.84168 12.075C4.73474 12.165 4.61807 12.2074 4.49168 12.2022C4.36529 12.1974 4.25349 12.16 4.15627 12.09C4.05904 12.02 3.98379 11.925 3.93052 11.805C3.87685 11.685 3.87432 11.555 3.92293 11.415L4.75418 8.64L2.6396 7.095C2.52293 7.015 2.45002 6.91 2.42085 6.78C2.39168 6.65 2.39654 6.53 2.43543 6.42C2.47432 6.31 2.54238 6.2124 2.6396 6.1272C2.73682 6.0424 2.85349 6 2.9896 6H5.60002L6.44585 3.12C6.49446 2.98 6.5699 2.8724 6.67218 2.7972C6.77407 2.7224 6.88335 2.685 7.00002 2.685C7.11668 2.685 7.22596 2.7224 7.32785 2.7972C7.43013 2.8724 7.50557 2.98 7.55418 3.12L8.40002 6H11.0104C11.1465 6 11.2632 6.0424 11.3604 6.1272C11.4577 6.2124 11.5257 6.31 11.5646 6.42C11.6035 6.53 11.6083 6.65 11.5792 6.78C11.55 6.91 11.4771 7.015 11.3604 7.095L9.24585 8.64L10.0771 11.415C10.1257 11.555 10.1234 11.685 10.0701 11.805C10.0164 11.925 9.94099 12.02 9.84377 12.09C9.74654 12.16 9.63474 12.1974 9.50835 12.2022C9.38196 12.2074 9.26529 12.165 9.15835 12.075L7.00002 10.38Z" fill="#949494"/>
</svg>
